<svg xmlns="http://www.w3.org/2000/svg" viewBox="0 0 400 400" width="400" height="400" role="img" aria-label="Ferro Resistance Band Kit">
  <defs>
    <linearGradient id="bg" x1="0" y1="0" x2="1" y2="1">
      <stop offset="0" stop-color="#e7f8f2"/>
      <stop offset="1" stop-color="#c6eee1"/>
    </linearGradient>
  </defs>
  <rect width="400" height="400" fill="url(#bg)"/>
  <circle cx="200" cy="200" r="136" fill="#10b981" opacity="0.07"/>
  <g opacity="0.5"><circle cx="70" cy="70" r="4" fill="#fff"/><circle cx="135" cy="70" r="4" fill="#fff"/><circle cx="200" cy="70" r="4" fill="#fff"/><circle cx="265" cy="70" r="4" fill="#fff"/><circle cx="330" cy="70" r="4" fill="#fff"/><circle cx="70" cy="135" r="4" fill="#fff"/><circle cx="135" cy="135" r="4" fill="#fff"/><circle cx="200" cy="135" r="4" fill="#fff"/><circle cx="265" cy="135" r="4" fill="#fff"/><circle cx="330" cy="135" r="4" fill="#fff"/><circle cx="70" cy="200" r="4" fill="#fff"/><circle cx="135" cy="200" r="4" fill="#fff"/><circle cx="200" cy="200" r="4" fill="#fff"/><circle cx="265" cy="200" r="4" fill="#fff"/><circle cx="330" cy="200" r="4" fill="#fff"/><circle cx="70" cy="265" r="4" fill="#fff"/><circle cx="135" cy="265" r="4" fill="#fff"/><circle cx="200" cy="265" r="4" fill="#fff"/><circle cx="265" cy="265" r="4" fill="#fff"/><circle cx="330" cy="265" r="4" fill="#fff"/><circle cx="70" cy="330" r="4" fill="#fff"/><circle cx="135" cy="330" r="4" fill="#fff"/><circle cx="200" cy="330" r="4" fill="#fff"/><circle cx="265" cy="330" r="4" fill="#fff"/><circle cx="330" cy="330" r="4" fill="#fff"/></g>
  <g transform="rotate(-9 200 200)">
    <rect x="148" y="187" width="104" height="26" rx="13" fill="#10b981"/>
    <rect x="110" y="152" width="36" height="96" rx="14" fill="#10b981"/>
    <rect x="254" y="152" width="36" height="96" rx="14" fill="#10b981"/>
    <rect x="82" y="170" width="24" height="60" rx="12" fill="#10b981" opacity="0.62"/>
    <rect x="294" y="170" width="24" height="60" rx="12" fill="#10b981" opacity="0.62"/>
  </g>
</svg>
